 <svg version="1.0" xmlns="http://www.w3.org/2000/svg" width="200px" height="200px" viewBox="0 0 700.000000 666.000000" preserveAspectRatio="xMidYMid meet">
<metadata>
Created by potrace 1.12, written by Peter Selinger 2001-2015
</metadata>
<g transform="translate(0.000000,666.000000) scale(0.100000,-0.100000)" fill="#000000" stroke="none">
<path d="M3310 6471 c-87 -27 -165 -95 -204 -180 -17 -37 -21 -65 -21 -141 0
-84 3 -102 28 -152 17 -36 49 -76 83 -106 l54 -49 -41 -204 c-154 -768 -331
-1136 -520 -1080 -101 30 -202 174 -295 420 l-43 114 47 42 c73 66 105 133
110 231 8 153 -49 263 -169 323 -149 75 -315 15 -396 -142 -38 -75 -44 -198
-13 -281 22 -58 105 -157 140 -168 20 -6 1 -108 -50 -261 -79 -237 -174 -378
-295 -438 -60 -29 -71 -31 -143 -27 -90 5 -174 39 -276 112 -69 50 -228 211
-298 302 l-47 62 32 58 c30 55 32 65 32 154 -1 78 -5 103 -23 141 -34 68 -87
126 -146 157 -43 22 -64 27 -131 27 -70 0 -87 -4 -133 -29 -65 -36 -107 -82
-141 -156 -22 -46 -26 -69 -26 -140 0 -97 25 -165 86 -235 33 -37 137 -95 171
-95 24 0 37 -23 106 -185 112 -262 224 -577 293 -819 108 -382 152 -757 110
-938 -5 -20 -7 -39 -4 -41 2 -3 41 14 86 38 45 23 124 52 175 66 50 13 92 27
92 31 0 5 -6 8 -13 8 -24 0 -182 -47 -235 -70 -29 -12 -55 -20 -59 -17 -3 4
-5 73 -4 154 4 335 -103 792 -314 1343 -93 240 -177 431 -195 442 -8 4 -41 17
-74 29 -71 26 -129 76 -164 143 -24 45 -27 62 -27 146 0 79 4 102 23 137 56
106 143 163 246 163 112 0 200 -61 252 -174 24 -52 26 -67 22 -140 -4 -60 -12
-96 -32 -138 -26 -54 -26 -59 -11 -87 39 -77 188 -240 302 -332 335 -269 610
-164 773 296 41 117 81 281 73 303 -4 9 -32 40 -63 69 -76 69 -104 132 -104
233 0 125 58 226 161 276 139 69 298 6 366 -145 15 -34 20 -67 21 -126 0 -101
-23 -156 -100 -237 -66 -69 -66 -63 5 -238 112 -275 225 -400 351 -388 158 15
287 249 414 744 47 184 116 516 116 557 0 14 -21 43 -56 77 -79 77 -97 117
-102 222 -4 77 -2 92 22 145 51 110 141 173 246 172 106 -1 187 -51 240 -150
32 -59 35 -71 35 -149 0 -72 -4 -93 -28 -141 -15 -31 -49 -77 -77 -102 -63
-58 -63 -62 -10 -319 126 -618 264 -958 422 -1039 141 -72 290 62 415 373 25
62 48 130 51 151 4 36 1 42 -46 90 -70 71 -95 132 -96 227 0 123 55 220 155
274 42 24 64 29 118 29 145 0 261 -113 277 -271 11 -106 -43 -229 -126 -287
-22 -15 -43 -39 -46 -52 -4 -14 4 -66 16 -116 113 -456 318 -677 570 -613 126
32 242 107 374 240 81 82 182 207 191 237 5 13 -3 42 -21 82 -38 81 -41 206
-8 278 88 190 316 228 451 75 52 -58 73 -120 73 -207 0 -131 -68 -237 -180
-282 -90 -37 -94 -40 -129 -112 -90 -186 -256 -636 -331 -894 -93 -323 -132
-555 -135 -796 -1 -141 -4 -170 -16 -168 -8 2 -52 16 -99 32 -93 33 -110 36
-110 21 0 -5 7 -10 15 -10 26 0 171 -59 209 -85 19 -13 38 -20 40 -16 3 5 1
35 -4 67 -24 147 -4 401 51 657 70 323 247 841 401 1177 l35 75 60 17 c77 22
151 87 190 166 25 51 28 68 28 152 -1 110 -19 161 -81 230 -209 231 -571 26
-514 -293 6 -34 22 -82 36 -106 13 -24 24 -45 24 -47 0 -2 -36 -48 -80 -103
-190 -236 -390 -371 -550 -371 -94 0 -146 24 -226 104 -105 106 -180 264 -240
506 l-24 95 61 54 c83 74 111 132 117 242 8 154 -49 259 -172 319 -60 30 -72
32 -138 28 -117 -8 -198 -62 -256 -171 -24 -47 -27 -62 -27 -157 0 -123 14
-158 98 -247 l50 -53 -48 -124 c-114 -300 -243 -444 -364 -407 -58 17 -138
109 -194 223 -87 175 -186 516 -258 891 l-32 167 56 53 c77 71 110 146 111
247 1 104 -22 166 -91 240 -40 44 -69 64 -109 80 -55 20 -128 25 -174 11z"></path>
<path d="M3377 4503 c-66 -131 -218 -467 -222 -491 -3 -19 32 -120 114 -327
l118 -300 33 0 34 0 134 295 c111 246 133 301 129 330 -3 19 -60 148 -128 285
-121 244 -125 250 -156 253 -29 3 -34 -1 -56 -45z m197 -236 l129 -266 -32
-73 c-139 -311 -245 -538 -251 -538 -4 0 -33 66 -65 148 -32 81 -86 219 -120
306 l-63 159 105 226 c58 124 114 245 125 269 11 24 25 41 31 39 6 -2 70 -123
141 -270z"></path>
<path d="M2282 4173 c-7 -3 -17 -16 -22 -29 -20 -50 -92 -376 -87 -393 8 -31
267 -369 287 -374 41 -11 49 11 80 208 43 274 45 254 -51 382 -152 201 -172
220 -207 206z m135 -156 c61 -78 116 -152 123 -163 10 -16 7 -55 -19 -220 -17
-111 -31 -211 -31 -223 0 -11 -6 -21 -12 -21 -7 1 -74 83 -150 184 l-136 183
44 189 c50 213 50 214 62 214 5 0 58 -64 119 -143z"></path>
<path d="M4570 4123 c-53 -37 -288 -244 -295 -261 -10 -22 -35 -420 -28 -448
6 -29 50 -37 78 -16 105 83 317 280 322 300 3 14 3 112 1 219 -5 174 -8 196
-24 208 -24 18 -25 18 -54 -2z m50 -130 c0 -71 3 -164 6 -208 l7 -81 -171
-152 c-94 -84 -176 -152 -183 -152 -11 0 -7 145 10 370 l6 84 153 133 c84 73
157 133 162 133 6 0 10 -50 10 -127z"></path>
<path d="M1320 4052 c0 -4 72 -63 160 -132 133 -103 161 -129 165 -155 3 -16
12 -109 20 -205 17 -195 21 -220 35 -220 13 0 13 0 -11 238 -12 131 -25 215
-34 229 -18 27 -305 253 -322 253 -7 0 -13 -3 -13 -8z"></path>
<path d="M5345 3931 c-77 -60 -150 -120 -162 -133 -20 -21 -25 -47 -43 -227
-12 -111 -20 -214 -18 -229 4 -35 23 -39 23 -5 0 16 9 120 20 232 l19 203 158
124 c87 68 163 124 168 124 6 0 10 -80 10 -207 l-1 -208 -179 -143 c-160 -127
-212 -176 -165 -158 30 11 354 277 359 294 3 9 6 108 8 220 3 213 2 221 -42
222 -8 0 -78 -49 -155 -109z"></path>
<path d="M1281 3863 c1 -270 -16 -234 192 -400 97 -79 182 -143 187 -143 26 0
-3 28 -167 159 l-178 142 -5 201 c-4 149 -8 202 -17 206 -10 3 -13 -34 -12
-165z"></path>
<path d="M3045 2993 c-406 -8 -1085 -61 -1085 -85 0 -10 -5 -11 152 7 465 51
1123 73 1667 56 339 -10 394 -10 380 3 -2 2 -137 9 -300 15 -270 10 -485 11
-814 4z"></path>
<path d="M4190 2960 c0 -5 18 -10 40 -10 22 0 40 5 40 10 0 6 -18 10 -40 10
-22 0 -40 -4 -40 -10z"></path>
<path d="M1890 2900 c0 -5 11 -10 25 -10 14 0 25 5 25 10 0 6 -11 10 -25 10
-14 0 -25 -4 -25 -10z"></path>
<path d="M1560 2890 c0 -5 5 -10 10 -10 6 0 10 5 10 10 0 6 -4 10 -10 10 -5 0
-10 -4 -10 -10z"></path>
<path d="M1820 2890 c0 -5 9 -10 20 -10 11 0 20 5 20 10 0 6 -9 10 -20 10 -11
0 -20 -4 -20 -10z"></path>
<path d="M5270 2870 c0 -5 5 -10 10 -10 6 0 10 5 10 10 0 6 -4 10 -10 10 -5 0
-10 -4 -10 -10z"></path>
<path d="M5360 2775 c0 -2 21 -13 47 -25 55 -24 113 -66 113 -82 0 -6 -7 -20
-17 -30 -9 -10 -14 -21 -10 -24 11 -11 47 17 53 43 6 22 1 32 -27 55 -41 35
-159 82 -159 63z"></path>
<path d="M3783 2652 c-72 -26 -128 -67 -163 -121 -61 -91 -61 -96 -58 -677 3
-516 4 -530 24 -575 31 -66 87 -124 152 -156 71 -35 200 -44 283 -19 73 21
145 79 183 146 30 54 31 58 31 190 l0 135 -122 3 -123 3 0 -83 c0 -46 -5 -100
-10 -120 -19 -68 -85 -89 -137 -44 l-28 24 0 219 0 218 213 3 213 2 -3 313 -3
312 -26 55 c-59 126 -145 182 -288 187 -65 3 -99 -1 -138 -15z m157 -217 c17
-9 33 -27 37 -43 4 -15 8 -106 8 -202 l0 -175 -85 0 -85 0 -3 175 c-3 190 3
221 47 245 34 18 46 18 81 0z"></path>
<path d="M3846 2355 c-12 -31 -6 -35 50 -35 52 0 55 1 52 23 -3 19 -10 22 -49
25 -36 2 -48 -1 -53 -13z"></path>
<path d="M4768 2660 c-14 -4 -47 -22 -72 -39 l-46 -32 0 31 0 30 -130 0 -130
0 2 -776 3 -776 125 0 125 0 3 648 2 649 34 23 c47 32 101 27 130 -11 21 -28
21 -38 26 -669 l5 -641 127 -1 128 -1 2 653 3 654 24 19 c47 38 114 19 149
-44 16 -29 17 -84 19 -656 l3 -623 122 0 123 0 3 623 c2 417 -1 646 -8 689
-14 80 -48 158 -86 194 -100 96 -264 85 -357 -25 l-38 -44 -39 47 c-66 77
-160 106 -252 78z"></path>
<path d="M5950 2657 c-106 -30 -189 -111 -221 -217 -19 -63 -20 -89 -17 -585
l3 -520 26 -55 c36 -77 80 -124 147 -157 52 -25 67 -28 167 -28 100 0 115 2
167 28 32 16 75 48 97 73 59 67 72 118 69 260 l-3 119 -120 0 -120 0 -5 -108
c-5 -104 -6 -110 -33 -133 -35 -30 -78 -31 -111 -1 l-26 22 -1 220 -1 220 211
3 212 2 -3 318 -3 317 -28 57 c-32 65 -90 122 -156 151 -57 25 -186 33 -251
14z m165 -238 c19 -18 20 -33 20 -212 l0 -192 -85 0 -85 0 -3 165 c-3 186 5
232 46 255 33 18 80 12 107 -16z"></path>
<path d="M780 2643 c-65 -24 -151 -113 -180 -188 -20 -50 -24 -79 -24 -175 -1
-181 30 -246 219 -454 138 -153 149 -177 150 -323 0 -98 -3 -115 -21 -140 -15
-20 -31 -29 -57 -31 -55 -5 -71 27 -77 158 l-5 105 -99 3 c-55 1 -104 1 -110
-1 -8 -3 -9 -49 -5 -143 5 -124 8 -146 33 -199 52 -114 114 -156 241 -163 95
-5 147 7 212 51 93 62 143 191 143 369 0 202 -50 310 -235 509 -120 129 -135
160 -135 268 0 78 2 84 29 112 32 31 50 35 83 18 32 -17 48 -71 48 -164 l0
-85 106 0 107 0 -5 123 c-8 182 -51 278 -151 333 -44 23 -66 28 -137 31 -60 2
-98 -2 -130 -14z"></path>
<path d="M2555 2651 c-11 -5 -37 -27 -58 -50 -20 -22 -40 -41 -43 -41 -3 0 -4
19 -2 43 l3 42 -128 3 -127 3 0 -891 0 -890 -806 -2 -805 -3 0 -275 0 -275
2908 0 2908 0 0 275 0 275 -1977 3 -1978 2 0 160 c0 88 4 160 8 160 4 0 24
-16 43 -36 46 -49 79 -64 136 -64 96 1 171 59 216 170 22 54 22 64 25 564 3
483 2 512 -17 589 -42 163 -111 239 -224 244 -34 2 -71 -1 -82 -6z m23 -237
c13 -9 28 -28 33 -42 6 -16 10 -218 10 -522 l-1 -495 -26 -22 c-45 -41 -97
-24 -128 41 -14 30 -16 91 -16 516 l0 482 29 29 c33 32 65 37 99 13z m-1272
-1650 c19 -44 134 -363 134 -370 0 -3 -30 -4 -67 -2 -62 3 -68 5 -73 28 -5 23
-11 25 -66 28 -58 3 -60 2 -71 -28 -11 -29 -14 -30 -72 -30 -33 0 -62 3 -64 8
-3 4 26 90 64 192 38 102 71 191 74 198 3 8 26 12 65 12 61 0 61 0 76 -36z
m2360 0 c19 -44 134 -363 134 -370 0 -3 -30 -4 -67 -2 -62 3 -68 5 -73 28 -5
23 -11 25 -66 28 -58 3 -60 2 -71 -28 -11 -29 -14 -30 -72 -30 -33 0 -62 3
-64 8 -4 7 26 91 110 310 l35 92 60 0 c58 0 59 0 74 -36z m-1489 3 c44 -24 53
-44 53 -126 0 -63 -3 -72 -25 -90 -29 -22 -106 -41 -170 -41 l-44 0 -3 -57 -3
-58 -65 0 -65 0 -3 185 c-1 101 0 191 3 198 8 22 278 12 322 -11z m800 0 c44
-24 53 -44 53 -126 0 -63 -3 -72 -25 -90 -29 -22 -106 -41 -170 -41 l-44 0 -3
-57 -3 -58 -65 0 -65 0 -3 185 c-1 101 0 191 3 198 8 22 278 12 322 -11z
m1559 0 c36 -19 44 -34 44 -87 0 -43 -10 -54 -60 -68 l-35 -10 32 -7 c54 -12
64 -32 61 -121 l-3 -79 -67 -3 -68 -3 0 84 c0 95 -7 107 -62 107 l-37 0 -3
-92 -3 -93 -65 0 -65 0 -3 185 c-1 101 0 191 3 198 8 22 288 12 331 -11z m759
-2 c0 -18 -8 -20 -77 -23 l-76 -3 -4 -55 c-1 -31 -1 -58 1 -60 2 -2 37 -4 78
-4 66 0 73 -2 73 -20 0 -18 -7 -20 -74 -20 -42 0 -78 -5 -81 -11 -4 -5 -4 -37
0 -69 l7 -59 81 -3 c74 -3 82 -5 82 -23 0 -19 -7 -20 -155 -20 l-155 0 -3 185
c-1 101 0 190 3 197 3 11 38 13 152 11 140 -3 148 -4 148 -23z m563 -152 l2
-173 61 0 c57 0 60 -1 57 -22 -3 -22 -6 -23 -128 -23 l-125 0 -3 185 c-1 101
0 190 3 198 3 9 22 12 67 10 l63 -3 3 -172z"></path>
<path d="M2508 2369 c-29 -16 -21 -26 28 -34 54 -8 64 -2 39 25 -20 22 -41 25
-67 9z"></path>
<path d="M1206 579 c-10 -39 -16 -72 -14 -73 1 -2 20 -6 41 -9 29 -4 37 -2 37
9 0 26 -32 144 -39 144 -4 0 -15 -32 -25 -71z"></path>
<path d="M3567 583 c-9 -38 -17 -71 -17 -75 0 -5 18 -8 40 -8 22 0 40 5 40 10
0 23 -33 140 -39 140 -4 0 -14 -30 -24 -67z"></path>
<path d="M1990 650 l0 -90 31 0 c59 0 69 13 69 88 0 79 -9 92 -62 92 l-38 0 0
-90z"></path>
<path d="M2790 650 l0 -90 38 0 c53 0 62 13 62 90 0 77 -9 90 -62 90 l-38 0 0
-90z"></path>
<path d="M4340 686 l0 -56 33 0 c51 0 69 19 65 65 l-3 40 -47 3 -48 3 0 -55z"></path>
<path d="M3362 2648 c-5 -7 -21 -46 -35 -86 -13 -40 -28 -76 -32 -80 -4 -4 -5
31 -4 78 l4 85 -130 0 -129 0 2 -774 3 -774 124 1 125 0 3 584 c3 625 4 630
54 685 21 22 30 25 69 20 l44 -5 0 127 c0 85 -4 131 -12 139 -16 16 -73 15
-86 0z"></path>
<path d="M1342 1996 l3 -653 40 -79 c68 -132 158 -180 325 -172 147 7 239 64
291 183 33 74 40 234 37 820 l-3 550 -127 3 -128 3 0 -633 c0 -612 -1 -634
-20 -665 -34 -56 -102 -56 -144 0 -21 28 -21 36 -24 663 l-3 634 -125 0 -125
0 3 -654z"></path>
<path d="M1645 2460 c-9 -15 12 -30 42 -30 12 0 28 -3 37 -6 17 -7 20 3 8 24
-12 18 -78 27 -87 12z"></path>
<path d="M2074 2406 c-10 -25 5 -36 47 -36 36 0 40 2 37 23 -2 18 -10 23 -41
25 -26 2 -39 -1 -43 -12z"></path>
<path d="M4708 2393 c-10 -2 -18 -9 -18 -15 0 -5 7 -7 16 -4 9 3 29 6 45 6 16
0 29 5 29 10 0 10 -40 12 -72 3z"></path>
<path d="M4287 2383 c-4 -3 -7 -15 -7 -25 0 -14 8 -18 33 -18 41 0 49 7 36 31
-9 18 -49 26 -62 12z"></path>
<path d="M2916 2363 c-3 -4 -6 -14 -6 -24 0 -13 11 -18 43 -21 49 -6 62 2 45
24 -14 16 -71 31 -82 21z"></path>
<path d="M3367 2342 c-10 -10 -17 -22 -17 -26 0 -4 39 -5 88 -4 82 3 87 4 90
26 3 21 0 22 -71 22 -59 0 -77 -4 -90 -18z"></path>
</g>
</svg>